<svg xmlns="http://www.w3.org/2000/svg" viewBox="0 0 760 430">
<rect width="760" height="430" rx="30" fill="#f7f5f9"/>
<path d="M -30 263 C 180 265, 430 259, 760 265" stroke="#d9d4df" stroke-width="6" fill="none" opacity=".95"/><path d="M -30 333 C 180 338, 430 323, 760 338" stroke="#d9d4df" stroke-width="3" fill="none" opacity=".95"/><path d="M -30 201 C 180 200, 430 203, 760 200" stroke="#d9d4df" stroke-width="3" fill="none" opacity=".95"/><path d="M -30 130 C 180 133, 430 124, 760 133" stroke="#d9d4df" stroke-width="6" fill="none" opacity=".95"/><path d="M -30 320 C 180 325, 430 310, 760 325" stroke="#d9d4df" stroke-width="3" fill="none" opacity=".95"/><path d="M -30 235 C 180 234, 430 237, 760 234" stroke="#d9d4df" stroke-width="3" fill="none" opacity=".95"/><path d="M -30 179 C 180 182, 430 173, 760 182" stroke="#d9d4df" stroke-width="6" fill="none" opacity=".95"/><path d="M -30 80 C 180 85, 430 70, 760 85" stroke="#d9d4df" stroke-width="3" fill="none" opacity=".95"/><path d="M -30 95 C 180 101, 430 83, 760 101" stroke="#d9d4df" stroke-width="3" fill="none" opacity=".95"/><path d="M 357 -20 C 375 120, 343 260, 367 430" stroke="#e8e4ed" stroke-width="4" fill="none"/><path d="M 270 -20 C 288 120, 256 260, 280 430" stroke="#e8e4ed" stroke-width="4" fill="none"/><path d="M 134 -20 C 152 120, 120 260, 144 430" stroke="#e8e4ed" stroke-width="4" fill="none"/><path d="M 213 -20 C 231 120, 199 260, 223 430" stroke="#e8e4ed" stroke-width="4" fill="none"/><path d="M 651 -20 C 669 120, 637 260, 661 430" stroke="#e8e4ed" stroke-width="4" fill="none"/><path d="M 236 -20 C 254 120, 222 260, 246 430" stroke="#e8e4ed" stroke-width="4" fill="none"/>
<circle cx="380" cy="205" r="54" fill="#ffffff" opacity=".92"/>
<path d="M380 121c-43 0-78 35-78 78 0 58 78 137 78 137s78-79 78-137c0-43-35-78-78-78z" fill="#7140d5"/>
<circle cx="380" cy="198" r="28" fill="#ffffff"/>
<text x="380" y="390" text-anchor="middle" font-size="28" font-family="sans-serif" font-weight="700" fill="#201b2d">博多運河城</text>
<text x="24" y="38" font-size="18" font-family="sans-serif" fill="#7a7486">位置示意 · 點擊下方可開啟 Google Maps</text>
</svg>