<svg xmlns="http://www.w3.org/2000/svg" viewBox="0 0 760 430">
<rect width="760" height="430" rx="30" fill="#f7f5f9"/>
<path d="M -30 59 C 180 64, 430 49, 760 64" stroke="#d9d4df" stroke-width="6" fill="none" opacity=".95"/><path d="M -30 180 C 180 179, 430 182, 760 179" stroke="#d9d4df" stroke-width="3" fill="none" opacity=".95"/><path d="M -30 79 C 180 75, 430 87, 760 75" stroke="#d9d4df" stroke-width="3" fill="none" opacity=".95"/><path d="M -30 348 C 180 350, 430 344, 760 350" stroke="#d9d4df" stroke-width="6" fill="none" opacity=".95"/><path d="M -30 324 C 180 321, 430 330, 760 321" stroke="#d9d4df" stroke-width="3" fill="none" opacity=".95"/><path d="M -30 319 C 180 314, 430 329, 760 314" stroke="#d9d4df" stroke-width="3" fill="none" opacity=".95"/><path d="M -30 218 C 180 212, 430 230, 760 212" stroke="#d9d4df" stroke-width="6" fill="none" opacity=".95"/><path d="M -30 339 C 180 340, 430 337, 760 340" stroke="#d9d4df" stroke-width="3" fill="none" opacity=".95"/><path d="M -30 68 C 180 72, 430 60, 760 72" stroke="#d9d4df" stroke-width="3" fill="none" opacity=".95"/><path d="M 315 -20 C 333 120, 301 260, 325 430" stroke="#e8e4ed" stroke-width="4" fill="none"/><path d="M 668 -20 C 686 120, 654 260, 678 430" stroke="#e8e4ed" stroke-width="4" fill="none"/><path d="M 568 -20 C 586 120, 554 260, 578 430" stroke="#e8e4ed" stroke-width="4" fill="none"/><path d="M 187 -20 C 205 120, 173 260, 197 430" stroke="#e8e4ed" stroke-width="4" fill="none"/><path d="M 700 -20 C 718 120, 686 260, 710 430" stroke="#e8e4ed" stroke-width="4" fill="none"/><path d="M 215 -20 C 233 120, 201 260, 225 430" stroke="#e8e4ed" stroke-width="4" fill="none"/>
<circle cx="380" cy="205" r="54" fill="#ffffff" opacity=".92"/>
<path d="M380 121c-43 0-78 35-78 78 0 58 78 137 78 137s78-79 78-137c0-43-35-78-78-78z" fill="#7140d5"/>
<circle cx="380" cy="198" r="28" fill="#ffffff"/>
<text x="380" y="390" text-anchor="middle" font-size="28" font-family="sans-serif" font-weight="700" fill="#201b2d">福岡 CHIIKAWA LAND</text>
<text x="24" y="38" font-size="18" font-family="sans-serif" fill="#7a7486">位置示意 · 點擊下方可開啟 Google Maps</text>
</svg>