<svg xmlns="http://www.w3.org/2000/svg" viewBox="0 0 760 430">
<rect width="760" height="430" rx="30" fill="#f7f5f9"/>
<path d="M -30 85 C 180 80, 430 95, 760 80" stroke="#d9d4df" stroke-width="6" fill="none" opacity=".95"/><path d="M -30 120 C 180 114, 430 132, 760 114" stroke="#d9d4df" stroke-width="3" fill="none" opacity=".95"/><path d="M -30 159 C 180 160, 430 157, 760 160" stroke="#d9d4df" stroke-width="3" fill="none" opacity=".95"/><path d="M -30 201 C 180 198, 430 207, 760 198" stroke="#d9d4df" stroke-width="6" fill="none" opacity=".95"/><path d="M -30 61 C 180 63, 430 57, 760 63" stroke="#d9d4df" stroke-width="3" fill="none" opacity=".95"/><path d="M -30 289 C 180 286, 430 295, 760 286" stroke="#d9d4df" stroke-width="3" fill="none" opacity=".95"/><path d="M -30 227 C 180 222, 430 237, 760 222" stroke="#d9d4df" stroke-width="6" fill="none" opacity=".95"/><path d="M -30 59 C 180 53, 430 71, 760 53" stroke="#d9d4df" stroke-width="3" fill="none" opacity=".95"/><path d="M -30 46 C 180 39, 430 60, 760 39" stroke="#d9d4df" stroke-width="3" fill="none" opacity=".95"/><path d="M 345 -20 C 363 120, 331 260, 355 430" stroke="#e8e4ed" stroke-width="4" fill="none"/><path d="M 151 -20 C 169 120, 137 260, 161 430" stroke="#e8e4ed" stroke-width="4" fill="none"/><path d="M 125 -20 C 143 120, 111 260, 135 430" stroke="#e8e4ed" stroke-width="4" fill="none"/><path d="M 287 -20 C 305 120, 273 260, 297 430" stroke="#e8e4ed" stroke-width="4" fill="none"/><path d="M 139 -20 C 157 120, 125 260, 149 430" stroke="#e8e4ed" stroke-width="4" fill="none"/><path d="M 555 -20 C 573 120, 541 260, 565 430" stroke="#e8e4ed" stroke-width="4" fill="none"/>
<circle cx="380" cy="205" r="54" fill="#ffffff" opacity=".92"/>
<path d="M380 121c-43 0-78 35-78 78 0 58 78 137 78 137s78-79 78-137c0-43-35-78-78-78z" fill="#7140d5"/>
<circle cx="380" cy="198" r="28" fill="#ffffff"/>
<text x="380" y="390" text-anchor="middle" font-size="28" font-family="sans-serif" font-weight="700" fill="#201b2d">博多聖誕市集</text>
<text x="24" y="38" font-size="18" font-family="sans-serif" fill="#7a7486">位置示意 · 點擊下方可開啟 Google Maps</text>
</svg>