<svg xmlns="http://www.w3.org/2000/svg" viewBox="0 0 760 430">
<rect width="760" height="430" rx="30" fill="#f7f5f9"/>
<path d="M -30 43 C 180 47, 430 35, 760 47" stroke="#d9d4df" stroke-width="6" fill="none" opacity=".95"/><path d="M -30 328 C 180 334, 430 316, 760 334" stroke="#d9d4df" stroke-width="3" fill="none" opacity=".95"/><path d="M -30 70 C 180 69, 430 72, 760 69" stroke="#d9d4df" stroke-width="3" fill="none" opacity=".95"/><path d="M -30 340 C 180 336, 430 348, 760 336" stroke="#d9d4df" stroke-width="6" fill="none" opacity=".95"/><path d="M -30 43 C 180 37, 430 55, 760 37" stroke="#d9d4df" stroke-width="3" fill="none" opacity=".95"/><path d="M -30 233 C 180 226, 430 247, 760 226" stroke="#d9d4df" stroke-width="3" fill="none" opacity=".95"/><path d="M -30 319 C 180 312, 430 333, 760 312" stroke="#d9d4df" stroke-width="6" fill="none" opacity=".95"/><path d="M -30 334 C 180 334, 430 334, 760 334" stroke="#d9d4df" stroke-width="3" fill="none" opacity=".95"/><path d="M -30 35 C 180 31, 430 43, 760 31" stroke="#d9d4df" stroke-width="3" fill="none" opacity=".95"/><path d="M 556 -20 C 574 120, 542 260, 566 430" stroke="#e8e4ed" stroke-width="4" fill="none"/><path d="M 110 -20 C 128 120, 96 260, 120 430" stroke="#e8e4ed" stroke-width="4" fill="none"/><path d="M 647 -20 C 665 120, 633 260, 657 430" stroke="#e8e4ed" stroke-width="4" fill="none"/><path d="M 581 -20 C 599 120, 567 260, 591 430" stroke="#e8e4ed" stroke-width="4" fill="none"/><path d="M 111 -20 C 129 120, 97 260, 121 430" stroke="#e8e4ed" stroke-width="4" fill="none"/><path d="M 660 -20 C 678 120, 646 260, 670 430" stroke="#e8e4ed" stroke-width="4" fill="none"/>
<circle cx="380" cy="205" r="54" fill="#ffffff" opacity=".92"/>
<path d="M380 121c-43 0-78 35-78 78 0 58 78 137 78 137s78-79 78-137c0-43-35-78-78-78z" fill="#7140d5"/>
<circle cx="380" cy="198" r="28" fill="#ffffff"/>
<text x="380" y="390" text-anchor="middle" font-size="28" font-family="sans-serif" font-weight="700" fill="#201b2d">西鐵飯店 Croom博多 祇園櫛田神社前</text>
<text x="24" y="38" font-size="18" font-family="sans-serif" fill="#7a7486">位置示意 · 點擊下方可開啟 Google Maps</text>
</svg>