<svg xmlns="http://www.w3.org/2000/svg" viewBox="0 0 760 430">
<rect width="760" height="430" rx="30" fill="#f7f5f9"/>
<path d="M -30 329 C 180 335, 430 317, 760 335" stroke="#d9d4df" stroke-width="6" fill="none" opacity=".95"/><path d="M -30 222 C 180 221, 430 224, 760 221" stroke="#d9d4df" stroke-width="3" fill="none" opacity=".95"/><path d="M -30 241 C 180 244, 430 235, 760 244" stroke="#d9d4df" stroke-width="3" fill="none" opacity=".95"/><path d="M -30 163 C 180 161, 430 167, 760 161" stroke="#d9d4df" stroke-width="6" fill="none" opacity=".95"/><path d="M -30 166 C 180 169, 430 160, 760 169" stroke="#d9d4df" stroke-width="3" fill="none" opacity=".95"/><path d="M -30 340 C 180 345, 430 330, 760 345" stroke="#d9d4df" stroke-width="3" fill="none" opacity=".95"/><path d="M -30 201 C 180 207, 430 189, 760 207" stroke="#d9d4df" stroke-width="6" fill="none" opacity=".95"/><path d="M -30 100 C 180 107, 430 86, 760 107" stroke="#d9d4df" stroke-width="3" fill="none" opacity=".95"/><path d="M -30 113 C 180 113, 430 113, 760 113" stroke="#d9d4df" stroke-width="3" fill="none" opacity=".95"/><path d="M 187 -20 C 205 120, 173 260, 197 430" stroke="#e8e4ed" stroke-width="4" fill="none"/><path d="M 453 -20 C 471 120, 439 260, 463 430" stroke="#e8e4ed" stroke-width="4" fill="none"/><path d="M 570 -20 C 588 120, 556 260, 580 430" stroke="#e8e4ed" stroke-width="4" fill="none"/><path d="M 188 -20 C 206 120, 174 260, 198 430" stroke="#e8e4ed" stroke-width="4" fill="none"/><path d="M 123 -20 C 141 120, 109 260, 133 430" stroke="#e8e4ed" stroke-width="4" fill="none"/><path d="M 476 -20 C 494 120, 462 260, 486 430" stroke="#e8e4ed" stroke-width="4" fill="none"/>
<circle cx="380" cy="205" r="54" fill="#ffffff" opacity=".92"/>
<path d="M380 121c-43 0-78 35-78 78 0 58 78 137 78 137s78-79 78-137c0-43-35-78-78-78z" fill="#7140d5"/>
<circle cx="380" cy="198" r="28" fill="#ffffff"/>
<text x="380" y="390" text-anchor="middle" font-size="28" font-family="sans-serif" font-weight="700" fill="#201b2d">九州國立博物館</text>
<text x="24" y="38" font-size="18" font-family="sans-serif" fill="#7a7486">位置示意 · 點擊下方可開啟 Google Maps</text>
</svg>